<svg width="621" height="357" viewBox="0 0 621 357" fill="none" xmlns="http://www.w3.org/2000/svg">
<path d="M6.296 106V16.4H49.432C57.7947 16.4 65.0053 17.7653 71.064 20.496C77.208 23.2267 81.944 27.152 85.272 32.272C88.6 37.3067 90.264 43.28 90.264 50.192C90.264 57.104 88.6 63.0773 85.272 68.112C81.944 73.0613 77.208 76.8587 71.064 79.504C65.0053 82.1493 57.7947 83.472 49.432 83.472H23.064L36.504 71.056V106H6.296ZM59.928 106L37.912 73.36H69.912L92.184 106H59.928ZM36.504 74.384L23.064 60.688H47.512C51.6933 60.688 54.7653 59.7493 56.728 57.872C58.776 55.9947 59.8 53.4347 59.8 50.192C59.8 46.9493 58.776 44.3893 56.728 42.512C54.7653 40.6347 51.6933 39.696 47.512 39.696H23.064L36.504 26V74.384ZM100.775 106V35.984H129.703V106H100.775ZM115.239 30.352C109.948 30.352 105.724 28.944 102.567 26.128C99.4097 23.312 97.831 19.8133 97.831 15.632C97.831 11.4507 99.4097 7.95199 102.567 5.13599C105.724 2.31999 109.948 0.911995 115.239 0.911995C120.53 0.911995 124.754 2.23466 127.911 4.88C131.068 7.52533 132.647 10.9387 132.647 15.12C132.647 19.5573 131.068 23.2267 127.911 26.128C124.754 28.944 120.53 30.352 115.239 30.352ZM173.245 107.28C167.186 107.28 161.554 105.829 156.349 102.928C151.229 99.9413 147.133 95.76 144.061 90.384C140.989 84.9227 139.453 78.4373 139.453 70.928C139.453 63.4187 140.989 56.976 144.061 51.6C147.133 46.1387 151.229 41.9573 156.349 39.056C161.554 36.1547 167.186 34.704 173.245 34.704C179.389 34.704 184.424 36.0267 188.349 38.672C192.274 41.232 195.176 45.2 197.053 50.576C198.93 55.8667 199.869 62.6507 199.869 70.928C199.869 79.2907 198.973 86.16 197.181 91.536C195.474 96.912 192.658 100.88 188.733 103.44C184.893 106 179.73 107.28 173.245 107.28ZM180.157 84.752C182.29 84.752 184.21 84.24 185.917 83.216C187.624 82.192 188.989 80.656 190.013 78.608C191.037 76.4747 191.549 73.9147 191.549 70.928C191.549 67.856 191.037 65.3387 190.013 63.376C188.989 61.328 187.624 59.792 185.917 58.768C184.21 57.744 182.29 57.232 180.157 57.232C178.024 57.232 176.104 57.744 174.397 58.768C172.69 59.792 171.325 61.328 170.301 63.376C169.277 65.3387 168.765 67.856 168.765 70.928C168.765 73.9147 169.277 76.4747 170.301 78.608C171.325 80.656 172.69 82.192 174.397 83.216C176.104 84.24 178.024 84.752 180.157 84.752ZM192.445 106V96.528L192.317 70.928L191.037 45.328V11.024H219.965V106H192.445ZM271.431 107.28C262.898 107.28 255.431 105.701 249.031 102.544C242.716 99.3867 237.81 95.0773 234.311 89.616C230.812 84.0693 229.063 77.84 229.063 70.928C229.063 63.8453 230.77 57.5733 234.183 52.112C237.682 46.6507 242.418 42.384 248.391 39.312C254.45 36.24 261.234 34.704 268.743 34.704C275.655 34.704 282.012 36.0693 287.815 38.8C293.703 41.5307 298.396 45.584 301.895 50.96C305.479 56.336 307.271 62.992 307.271 70.928C307.271 71.952 307.228 73.104 307.143 74.384C307.058 75.5787 306.972 76.688 306.887 77.712H252.999V63.76H291.527L280.647 67.472C280.647 64.7413 280.135 62.4373 279.111 60.56C278.172 58.5973 276.85 57.104 275.143 56.08C273.436 54.9707 271.388 54.416 268.999 54.416C266.61 54.416 264.519 54.9707 262.727 56.08C261.02 57.104 259.698 58.5973 258.759 60.56C257.82 62.4373 257.351 64.7413 257.351 67.472V71.824C257.351 74.8107 257.948 77.3707 259.143 79.504C260.338 81.6373 262.044 83.2587 264.263 84.368C266.482 85.392 269.17 85.904 272.327 85.904C275.57 85.904 278.215 85.4773 280.263 84.624C282.396 83.7707 284.615 82.4907 286.919 80.784L302.023 96.016C298.61 99.6853 294.386 102.501 289.351 104.464C284.402 106.341 278.428 107.28 271.431 107.28ZM39.704 221.048C32.1947 221.048 24.9413 220.195 17.944 218.488C10.9467 216.781 5.18667 214.563 0.664 211.832L10.392 189.816C14.6587 192.291 19.3947 194.296 24.6 195.832C29.8907 197.283 35.0107 198.008 39.96 198.008C42.8613 198.008 45.1227 197.837 46.744 197.496C48.4507 197.069 49.688 196.515 50.456 195.832C51.224 195.064 51.608 194.168 51.608 193.144C51.608 191.523 50.712 190.243 48.92 189.304C47.128 188.365 44.7387 187.597 41.752 187C38.8507 186.317 35.6507 185.635 32.152 184.952C28.6533 184.184 25.112 183.203 21.528 182.008C18.0293 180.813 14.7867 179.235 11.8 177.272C8.89867 175.309 6.552 172.749 4.76 169.592C2.968 166.349 2.072 162.339 2.072 157.56C2.072 152.013 3.608 146.979 6.68 142.456C9.83733 137.848 14.488 134.179 20.632 131.448C26.8613 128.717 34.584 127.352 43.8 127.352C49.8587 127.352 55.832 127.992 61.72 129.272C67.608 130.552 72.8987 132.515 77.592 135.16L68.504 157.048C64.0667 154.829 59.7573 153.165 55.576 152.056C51.48 150.947 47.4693 150.392 43.544 150.392C40.6427 150.392 38.3387 150.648 36.632 151.16C34.9253 151.672 33.688 152.355 32.92 153.208C32.2373 154.061 31.896 155 31.896 156.024C31.896 157.56 32.792 158.797 34.584 159.736C36.376 160.589 38.7227 161.315 41.624 161.912C44.6107 162.509 47.8533 163.149 51.352 163.832C54.936 164.515 58.4773 165.453 61.976 166.648C65.4747 167.843 68.6747 169.421 71.576 171.384C74.5627 173.347 76.952 175.907 78.744 179.064C80.536 182.221 81.432 186.147 81.432 190.84C81.432 196.301 79.8533 201.336 76.696 205.944C73.624 210.467 69.016 214.136 62.872 216.952C56.728 219.683 49.0053 221.048 39.704 221.048ZM138.165 147.704C143.541 147.704 148.405 148.813 152.757 151.032C157.109 153.165 160.522 156.536 162.997 161.144C165.557 165.752 166.837 171.725 166.837 179.064V219H137.909V184.056C137.909 179.704 137.141 176.632 135.605 174.84C134.069 172.963 131.978 172.024 129.333 172.024C127.37 172.024 125.536 172.493 123.829 173.432C122.208 174.285 120.885 175.736 119.861 177.784C118.922 179.832 118.453 182.605 118.453 186.104V219H89.525V124.024H118.453V169.464L111.541 163.576C114.272 158.285 117.941 154.317 122.549 151.672C127.242 149.027 132.448 147.704 138.165 147.704ZM221.768 219V206.584L219.72 203.256V179.704C219.72 176.291 218.653 173.688 216.52 171.896C214.472 170.104 211.101 169.208 206.408 169.208C203.251 169.208 200.051 169.72 196.808 170.744C193.565 171.683 190.792 173.005 188.488 174.712L179.272 155.64C183.368 153.08 188.275 151.117 193.992 149.752C199.709 148.387 205.299 147.704 210.76 147.704C222.792 147.704 232.093 150.392 238.664 155.768C245.32 161.144 248.648 169.677 248.648 181.368V219H221.768ZM201.928 220.28C196.211 220.28 191.432 219.299 187.592 217.336C183.752 215.373 180.851 212.771 178.888 209.528C176.925 206.2 175.944 202.531 175.944 198.52C175.944 193.997 177.096 190.157 179.4 187C181.704 183.843 185.203 181.453 189.896 179.832C194.675 178.211 200.691 177.4 207.944 177.4H222.536V191.352H212.552C209.48 191.352 207.219 191.864 205.768 192.888C204.403 193.827 203.72 195.277 203.72 197.24C203.72 198.861 204.317 200.227 205.512 201.336C206.792 202.36 208.499 202.872 210.632 202.872C212.595 202.872 214.387 202.36 216.008 201.336C217.715 200.227 218.952 198.52 219.72 196.216L223.432 204.792C222.323 209.997 219.976 213.88 216.392 216.44C212.808 219 207.987 220.28 201.928 220.28ZM261.15 219V148.984H288.67V170.104L284.19 164.088C286.323 158.627 289.737 154.531 294.43 151.8C299.123 149.069 304.755 147.704 311.326 147.704V173.304C310.046 173.133 308.894 173.005 307.87 172.92C306.931 172.835 305.95 172.792 304.926 172.792C300.574 172.792 296.99 173.944 294.174 176.248C291.443 178.467 290.078 182.349 290.078 187.896V219H261.15ZM357.556 220.28C349.023 220.28 341.556 218.701 335.156 215.544C328.841 212.387 323.935 208.077 320.436 202.616C316.937 197.069 315.188 190.84 315.188 183.928C315.188 176.845 316.895 170.573 320.308 165.112C323.807 159.651 328.543 155.384 334.516 152.312C340.575 149.24 347.359 147.704 354.868 147.704C361.78 147.704 368.137 149.069 373.94 151.8C379.828 154.531 384.521 158.584 388.02 163.96C391.604 169.336 393.396 175.992 393.396 183.928C393.396 184.952 393.353 186.104 393.268 187.384C393.183 188.579 393.097 189.688 393.012 190.712H339.124V176.76H377.652L366.772 180.472C366.772 177.741 366.26 175.437 365.236 173.56C364.297 171.597 362.975 170.104 361.268 169.08C359.561 167.971 357.513 167.416 355.124 167.416C352.735 167.416 350.644 167.971 348.852 169.08C347.145 170.104 345.823 171.597 344.884 173.56C343.945 175.437 343.476 177.741 343.476 180.472V184.824C343.476 187.811 344.073 190.371 345.268 192.504C346.463 194.637 348.169 196.259 350.388 197.368C352.607 198.392 355.295 198.904 358.452 198.904C361.695 198.904 364.34 198.477 366.388 197.624C368.521 196.771 370.74 195.491 373.044 193.784L388.148 209.016C384.735 212.685 380.511 215.501 375.476 217.464C370.527 219.341 364.553 220.28 357.556 220.28ZM52.632 334.048C45.464 334.048 38.808 332.939 32.664 330.72C26.6053 328.416 21.3147 325.173 16.792 320.992C12.3547 316.811 8.89867 311.861 6.424 306.144C3.94933 300.427 2.712 294.112 2.712 287.2C2.712 280.288 3.94933 273.973 6.424 268.256C8.89867 262.539 12.3547 257.589 16.792 253.408C21.3147 249.227 26.6053 246.027 32.664 243.808C38.808 241.504 45.464 240.352 52.632 240.352C61.4213 240.352 69.1867 241.888 75.928 244.96C82.7547 248.032 88.3867 252.469 92.824 258.272L73.752 275.296C71.1067 271.968 68.1627 269.408 64.92 267.616C61.7627 265.739 58.1787 264.8 54.168 264.8C51.0107 264.8 48.152 265.312 45.592 266.336C43.032 267.36 40.8133 268.853 38.936 270.816C37.144 272.779 35.736 275.168 34.712 277.984C33.688 280.715 33.176 283.787 33.176 287.2C33.176 290.613 33.688 293.728 34.712 296.544C35.736 299.275 37.144 301.621 38.936 303.584C40.8133 305.547 43.032 307.04 45.592 308.064C48.152 309.088 51.0107 309.6 54.168 309.6C58.1787 309.6 61.7627 308.704 64.92 306.912C68.1627 305.035 71.1067 302.432 73.752 299.104L92.824 316.128C88.3867 321.845 82.7547 326.283 75.928 329.44C69.1867 332.512 61.4213 334.048 52.632 334.048ZM135.642 333.28C127.706 333.28 120.666 331.744 114.522 328.672C108.463 325.515 103.685 321.205 100.186 315.744C96.6873 310.283 94.938 304.011 94.938 296.928C94.938 289.845 96.6873 283.573 100.186 278.112C103.685 272.651 108.463 268.384 114.522 265.312C120.666 262.24 127.706 260.704 135.642 260.704C143.578 260.704 150.618 262.24 156.762 265.312C162.906 268.384 167.685 272.651 171.098 278.112C174.597 283.573 176.346 289.845 176.346 296.928C176.346 304.011 174.597 310.283 171.098 315.744C167.685 321.205 162.906 325.515 156.762 328.672C150.618 331.744 143.578 333.28 135.642 333.28ZM135.642 310.752C137.775 310.752 139.695 310.24 141.402 309.216C143.109 308.192 144.474 306.656 145.498 304.608C146.522 302.475 147.034 299.915 147.034 296.928C147.034 293.856 146.522 291.339 145.498 289.376C144.474 287.328 143.109 285.792 141.402 284.768C139.695 283.744 137.775 283.232 135.642 283.232C133.509 283.232 131.589 283.744 129.882 284.768C128.175 285.792 126.81 287.328 125.786 289.376C124.762 291.339 124.25 293.856 124.25 296.928C124.25 299.915 124.762 302.475 125.786 304.608C126.81 306.656 128.175 308.192 129.882 309.216C131.589 310.24 133.509 310.752 135.642 310.752ZM278.072 260.704C283.363 260.704 288.099 261.813 292.28 264.032C296.547 266.165 299.875 269.536 302.264 274.144C304.739 278.752 305.976 284.725 305.976 292.064V332H277.048V297.056C277.048 292.704 276.323 289.632 274.872 287.84C273.421 285.963 271.544 285.024 269.24 285.024C267.533 285.024 265.997 285.451 264.632 286.304C263.267 287.157 262.157 288.523 261.304 290.4C260.536 292.192 260.152 294.667 260.152 297.824V332H231.224V297.056C231.224 292.704 230.541 289.632 229.176 287.84C227.811 285.963 225.891 285.024 223.416 285.024C221.709 285.024 220.173 285.451 218.808 286.304C217.443 287.157 216.333 288.523 215.48 290.4C214.712 292.192 214.328 294.667 214.328 297.824V332H185.4V261.984H212.92V282.08L207.288 276.448C209.933 271.157 213.475 267.232 217.912 264.672C222.349 262.027 227.299 260.704 232.76 260.704C238.904 260.704 244.323 262.325 249.016 265.568C253.795 268.725 256.995 273.76 258.616 280.672L249.784 279.264C252.344 273.461 256.056 268.939 260.92 265.696C265.869 262.368 271.587 260.704 278.072 260.704ZM365.245 333.28C359.186 333.28 354.152 332 350.141 329.44C346.216 326.795 343.314 322.827 341.437 317.536C339.56 312.16 338.621 305.333 338.621 297.056C338.621 288.608 339.474 281.739 341.181 276.448C342.973 271.072 345.832 267.104 349.757 264.544C353.682 261.984 358.845 260.704 365.245 260.704C371.389 260.704 377.021 262.197 382.141 265.184C387.261 268.085 391.357 272.267 394.429 277.728C397.501 283.104 399.037 289.547 399.037 297.056C399.037 304.565 397.501 311.051 394.429 316.512C391.357 321.888 387.261 326.027 382.141 328.928C377.021 331.829 371.389 333.28 365.245 333.28ZM318.525 356.832V261.984H346.045V271.456L346.173 297.056L347.453 322.656V356.832H318.525ZM358.333 310.752C360.466 310.752 362.386 310.24 364.093 309.216C365.8 308.192 367.165 306.656 368.189 304.608C369.213 302.56 369.725 300.043 369.725 297.056C369.725 293.984 369.213 291.424 368.189 289.376C367.165 287.328 365.8 285.792 364.093 284.768C362.386 283.744 360.466 283.232 358.333 283.232C356.2 283.232 354.28 283.744 352.573 284.768C350.866 285.792 349.501 287.328 348.477 289.376C347.453 291.424 346.941 293.984 346.941 297.056C346.941 300.043 347.453 302.56 348.477 304.608C349.501 306.656 350.866 308.192 352.573 309.216C354.28 310.24 356.2 310.752 358.333 310.752ZM448.768 332V319.584L446.72 316.256V292.704C446.72 289.291 445.653 286.688 443.52 284.896C441.472 283.104 438.101 282.208 433.408 282.208C430.251 282.208 427.051 282.72 423.808 283.744C420.565 284.683 417.792 286.005 415.488 287.712L406.272 268.64C410.368 266.08 415.275 264.117 420.992 262.752C426.709 261.387 432.299 260.704 437.76 260.704C449.792 260.704 459.093 263.392 465.664 268.768C472.32 274.144 475.648 282.677 475.648 294.368V332H448.768ZM428.928 333.28C423.211 333.28 418.432 332.299 414.592 330.336C410.752 328.373 407.851 325.771 405.888 322.528C403.925 319.2 402.944 315.531 402.944 311.52C402.944 306.997 404.096 303.157 406.4 300C408.704 296.843 412.203 294.453 416.896 292.832C421.675 291.211 427.691 290.4 434.944 290.4H449.536V304.352H439.552C436.48 304.352 434.219 304.864 432.768 305.888C431.403 306.827 430.72 308.277 430.72 310.24C430.72 311.861 431.317 313.227 432.512 314.336C433.792 315.36 435.499 315.872 437.632 315.872C439.595 315.872 441.387 315.36 443.008 314.336C444.715 313.227 445.952 311.52 446.72 309.216L450.432 317.792C449.323 322.997 446.976 326.88 443.392 329.44C439.808 332 434.987 333.28 428.928 333.28ZM488.15 332V261.984H515.67V283.104L511.19 277.088C513.323 271.627 516.737 267.531 521.43 264.8C526.123 262.069 531.755 260.704 538.326 260.704V286.304C537.046 286.133 535.894 286.005 534.87 285.92C533.931 285.835 532.95 285.792 531.926 285.792C527.574 285.792 523.99 286.944 521.174 289.248C518.443 291.467 517.078 295.349 517.078 300.896V332H488.15ZM584.556 333.28C576.023 333.28 568.556 331.701 562.156 328.544C555.841 325.387 550.935 321.077 547.436 315.616C543.937 310.069 542.188 303.84 542.188 296.928C542.188 289.845 543.895 283.573 547.308 278.112C550.807 272.651 555.543 268.384 561.516 265.312C567.575 262.24 574.359 260.704 581.868 260.704C588.78 260.704 595.137 262.069 600.94 264.8C606.828 267.531 611.521 271.584 615.02 276.96C618.604 282.336 620.396 288.992 620.396 296.928C620.396 297.952 620.353 299.104 620.268 300.384C620.183 301.579 620.097 302.688 620.012 303.712H566.124V289.76H604.652L593.772 293.472C593.772 290.741 593.26 288.437 592.236 286.56C591.297 284.597 589.975 283.104 588.268 282.08C586.561 280.971 584.513 280.416 582.124 280.416C579.735 280.416 577.644 280.971 575.852 282.08C574.145 283.104 572.823 284.597 571.884 286.56C570.945 288.437 570.476 290.741 570.476 293.472V297.824C570.476 300.811 571.073 303.371 572.268 305.504C573.463 307.637 575.169 309.259 577.388 310.368C579.607 311.392 582.295 311.904 585.452 311.904C588.695 311.904 591.34 311.477 593.388 310.624C595.521 309.771 597.74 308.491 600.044 306.784L615.148 322.016C611.735 325.685 607.511 328.501 602.476 330.464C597.527 332.341 591.553 333.28 584.556 333.28Z" fill="#03045E"/>
</svg>
