<?xml version="1.0" standalone="no"?>
<!DOCTYPE svg PUBLIC "-//W3C//DTD SVG 20010904//EN"
 "http://www.w3.org/TR/2001/REC-SVG-20010904/DTD/svg10.dtd">
<svg version="1.0" xmlns="http://www.w3.org/2000/svg"
 width="1920.000000pt" height="1920.000000pt" viewBox="0 0 1920.000000 1920.000000"
 preserveAspectRatio="xMidYMid meet">
<metadata>
Created by potrace 1.14, written by Peter Selinger 2001-2017
</metadata>
<g transform="translate(0.000000,1920.000000) scale(0.100000,-0.100000)"
fill="#000000" stroke="none">
<path d="M3340 14879 c-87 -22 -147 -43 -172 -61 -16 -11 -28 -17 -28 -14 0 3
-10 -2 -21 -12 -79 -64 -126 -128 -160 -217 -15 -39 -21 -195 -8 -195 6 0 7
-4 4 -10 -8 -13 20 -92 50 -139 56 -90 139 -152 255 -192 95 -32 296 -32 394
0 126 41 230 125 279 225 32 64 38 92 42 178 6 112 -27 205 -100 286 -69 76
-184 138 -270 144 -20 1 -38 5 -41 9 -6 10 -182 8 -224 -2z"/>
<path d="M5729 14581 c-12 -5 -14 -75 -14 -429 0 -233 -3 -426 -7 -428 -3 -2
-35 15 -70 39 -86 58 -158 87 -262 103 -21 3 -48 7 -60 10 -33 6 -216 6 -266
-1 -89 -12 -227 -57 -327 -106 -57 -28 -103 -55 -103 -59 0 -5 -10 -12 -22
-16 -32 -10 -178 -159 -227 -232 -136 -203 -191 -402 -185 -680 2 -81 5 -158
8 -172 3 -14 8 -41 11 -60 48 -255 191 -491 380 -629 64 -47 173 -111 189
-111 6 0 16 -4 21 -9 9 -9 134 -46 230 -68 54 -12 263 -9 355 6 41 6 105 23
142 37 66 25 179 91 192 113 4 6 16 16 27 21 19 10 20 8 19 -52 0 -35 1 -71 1
-80 0 -17 27 -18 408 -18 l408 0 1 1398 c0 768 -1 1404 -4 1413 -4 13 -52 15
-418 15 -227 0 -420 -2 -427 -5z m-249 -1382 c68 -19 170 -88 170 -116 0 -7 4
-13 9 -13 11 0 47 -91 61 -155 13 -57 11 -193 -2 -245 -14 -54 -53 -132 -84
-169 -112 -134 -353 -141 -471 -14 -32 35 -80 121 -87 158 -3 11 -8 38 -13 60
-13 61 -10 138 12 265 4 25 63 123 89 149 78 75 211 109 316 80z"/>
<path d="M219 14407 c-4 -61 -5 -2624 -1 -2634 3 -10 102 -13 451 -13 l448 0
-1 326 c-1 179 2 330 5 336 10 16 228 13 244 -3 7 -8 75 -106 151 -219 77
-113 165 -243 197 -290 32 -47 67 -100 79 -117 l20 -33 479 0 480 0 -12 23
c-7 12 -15 24 -18 27 -4 3 -22 30 -41 60 -19 30 -37 57 -40 60 -7 6 -269 390
-285 418 -5 9 -13 19 -16 22 -20 17 -137 204 -133 214 2 6 23 22 47 35 66 38
93 60 186 151 174 172 256 383 254 655 -3 395 -185 686 -538 863 -74 37 -183
76 -244 87 -14 3 -41 9 -59 14 -18 5 -36 10 -40 10 -4 1 -20 3 -37 6 -16 3
-50 8 -75 11 -25 4 -372 8 -772 9 l-728 3 -1 -21z m1361 -687 c63 -17 112 -44
150 -82 29 -28 59 -82 64 -113 1 -5 4 -15 8 -20 3 -6 6 -44 6 -85 -1 -56 -7
-89 -25 -130 -28 -64 -45 -84 -98 -118 -81 -51 -142 -62 -361 -62 -184 0 -202
2 -205 18 -4 14 -3 550 0 595 1 18 395 16 461 -3z"/>
<path d="M7835 13869 c-205 -34 -333 -78 -484 -168 -102 -61 -237 -184 -308
-281 -91 -125 -161 -296 -180 -438 -10 -70 -6 -329 5 -387 44 -228 178 -449
364 -597 59 -48 204 -138 221 -138 7 0 18 -5 23 -10 16 -16 202 -76 290 -94
110 -22 128 -24 219 -31 43 -4 83 -8 86 -11 4 -2 10 0 13 5 3 5 21 6 40 1 19
-4 38 -5 41 -2 3 3 29 7 58 8 75 4 158 13 165 18 4 2 31 7 59 11 69 8 217 57
295 96 83 42 194 118 241 167 l39 40 -225 226 -224 226 -61 -40 c-61 -41 -155
-84 -208 -95 -170 -36 -373 -7 -466 66 -43 34 -108 120 -108 142 0 13 84 15
716 15 394 0 717 2 719 4 8 8 11 243 4 323 -30 317 -187 596 -425 751 -32 21
-61 41 -64 44 -9 9 -160 80 -170 80 -5 0 -21 5 -37 12 -15 6 -37 13 -48 15
-11 2 -31 7 -45 12 -116 42 -382 56 -545 30z m325 -595 c52 -20 96 -48 127
-84 27 -31 79 -130 77 -147 -1 -7 -2 -16 -3 -20 -1 -7 -133 -8 -151 -2 -3 1
-9 1 -14 0 -22 -5 -297 -2 -304 3 -4 2 -13 2 -19 -2 -6 -4 -45 -6 -87 -4 -90
4 -92 8 -46 100 47 92 131 156 223 168 23 4 43 8 45 9 9 8 112 -7 152 -21z"/>
<path d="M3035 13841 c-3 -2 -5 -472 -5 -1043 l0 -1038 428 2 427 3 3 1038 c1
570 -1 1038 -5 1038 -21 4 -845 4 -848 0z"/>
<path d="M2725 11240 l-30 -5 0 -1410 0 -1410 420 -1 c231 0 425 1 430 3 7 2
10 184 10 521 -1 542 3 604 44 697 30 68 105 137 172 158 114 35 226 14 284
-54 28 -34 53 -85 61 -123 2 -12 7 -37 11 -56 3 -19 7 -280 7 -580 1 -300 4
-550 8 -555 4 -7 153 -10 425 -9 230 1 421 2 424 3 8 1 3 1305 -5 1351 -4 19
-11 64 -17 99 -11 70 -30 134 -60 198 -10 24 -19 45 -19 49 0 3 -19 36 -43 72
-87 134 -225 245 -357 287 -30 10 -63 22 -72 26 -10 5 -31 9 -46 9 -16 0 -32
3 -36 7 -4 4 -19 8 -34 10 -43 4 -276 4 -292 0 -8 -2 -37 -7 -65 -12 -27 -4
-54 -10 -60 -14 -5 -3 -12 -6 -15 -7 -62 -10 -222 -84 -256 -119 -22 -22 -52
-36 -57 -28 -2 5 -3 207 -3 450 l1 443 -30 1 c-161 3 -777 3 -800 -1z"/>
<path d="M1205 11142 c-1 -2 -31 -5 -66 -7 -35 -1 -86 -6 -114 -10 -61 -8
-252 -52 -280 -64 -11 -5 -50 -21 -87 -36 -309 -125 -512 -362 -557 -650 -13
-83 -7 -246 13 -328 48 -205 197 -373 422 -477 76 -35 304 -110 374 -123 14
-3 55 -12 91 -21 37 -8 79 -17 94 -20 61 -11 141 -28 155 -34 8 -3 24 -6 35
-8 77 -13 194 -61 236 -98 25 -22 47 -69 43 -93 -1 -7 -2 -17 -3 -23 0 -5 -14
-22 -29 -38 -52 -53 -238 -83 -422 -68 -124 11 -143 14 -339 62 -78 18 -219
74 -333 130 -98 48 -103 47 -133 -26 -19 -47 -45 -106 -89 -203 -14 -32 -26
-60 -26 -62 0 -2 -15 -37 -34 -77 -53 -116 -106 -236 -106 -242 0 -6 190 -97
250 -119 106 -41 329 -101 410 -112 14 -1 25 -4 25 -5 0 -1 24 -5 120 -15 128
-15 175 -17 310 -18 195 0 303 8 425 33 232 47 448 140 560 240 14 12 34 30
45 39 33 27 125 137 125 149 0 7 4 12 9 12 4 0 24 35 44 78 31 69 44 105 65
192 14 55 7 284 -11 350 -42 156 -143 296 -275 383 -62 42 -182 106 -199 108
-5 0 -23 7 -41 15 -36 15 -150 51 -186 59 -11 2 -39 9 -61 15 -22 5 -107 24
-190 41 -401 82 -495 125 -495 226 0 30 20 66 54 96 16 15 79 38 146 54 26 7
263 5 310 -2 100 -14 199 -38 280 -66 47 -16 92 -31 101 -34 9 -2 25 -8 35
-13 33 -16 154 -72 157 -72 2 0 16 28 31 63 39 87 38 85 106 252 33 83 67 164
75 180 40 84 61 151 51 161 -45 40 -330 147 -451 169 -11 2 -42 8 -70 14 -27
5 -68 12 -90 15 -23 4 -52 9 -65 12 -48 10 -437 24 -445 16z"/>
<path d="M6188 10535 c-2 -2 -37 -6 -79 -9 -42 -3 -82 -8 -90 -10 -8 -3 -37
-7 -65 -10 -59 -7 -252 -56 -339 -87 -65 -23 -245 -108 -245 -116 0 -5 36 -82
159 -336 45 -92 81 -172 81 -177 0 -6 5 -10 10 -10 6 0 10 -6 10 -14 0 -28 18
-26 76 9 79 48 169 80 306 111 13 3 75 7 139 9 211 6 337 -45 388 -159 39 -86
58 -79 -224 -82 -228 -3 -316 -6 -385 -17 -14 -3 -47 -8 -75 -12 -89 -13 -249
-68 -315 -108 -125 -76 -206 -175 -246 -302 -46 -143 -24 -366 47 -492 38 -69
52 -86 123 -155 95 -93 265 -165 436 -184 80 -9 240 -11 240 -3 0 3 19 6 43 7
150 8 329 111 409 233 40 62 43 55 42 -91 -1 -60 1 -111 5 -111 3 -1 181 -2
394 -3 338 -1 390 1 396 14 8 18 6 1104 -3 1215 -25 315 -134 539 -334 682
-79 56 -102 71 -122 79 -8 3 -33 13 -55 23 -37 17 -153 55 -165 54 -3 0 -16 4
-29 9 -22 8 -93 21 -181 33 -40 6 -348 14 -352 10z m382 -1372 c0 -58 -5 -84
-25 -122 -47 -94 -136 -144 -253 -142 -69 1 -132 29 -166 74 -39 51 -40 132
-2 182 51 67 103 80 319 81 l127 0 0 -73z"/>
<path d="M9176 10533 c-1 -2 -20 -5 -42 -7 -39 -5 -80 -12 -121 -21 -13 -3
-24 -5 -25 -5 -8 2 -159 -65 -196 -86 -51 -30 -72 -47 -119 -91 -19 -18 -37
-33 -41 -33 -5 0 -8 46 -8 103 l1 102 -407 3 c-323 2 -408 0 -409 -10 -1 -17
-1 -2028 0 -2053 1 -20 7 -20 424 -19 232 1 424 2 427 3 3 0 6 220 5 487 0
318 4 510 11 553 31 179 136 287 312 320 67 13 213 13 269 1 19 -5 36 -4 39 2
9 13 7 738 -1 746 -6 6 -113 11 -119 5z"/>
<path d="M10469 10536 c-2 -2 -24 -6 -49 -9 -52 -6 -76 -11 -185 -37 -239 -56
-474 -210 -618 -405 -51 -69 -136 -224 -141 -258 -1 -7 -4 -16 -7 -22 -7 -11
-31 -109 -35 -140 -1 -11 -3 -20 -4 -20 -11 0 -15 -271 -5 -340 47 -331 244
-605 555 -771 117 -63 305 -122 445 -139 28 -4 64 -9 80 -12 63 -11 372 -3
425 12 8 2 35 7 60 10 25 3 70 13 100 22 30 8 62 17 70 18 8 2 15 4 15 5 0 1
7 3 16 5 35 6 202 97 266 144 63 45 123 103 123 117 0 8 -434 444 -442 444 -4
0 -33 -16 -64 -36 -62 -40 -151 -83 -184 -89 -12 -2 -30 -7 -41 -10 -38 -12
-212 -12 -268 0 -105 24 -151 46 -205 99 -52 51 -91 110 -82 124 2 4 322 7
711 7 389 0 711 2 716 6 16 10 25 166 16 289 -9 114 -20 176 -49 270 -93 296
-305 513 -623 639 -52 21 -164 49 -265 67 -34 6 -326 15 -331 10z m283 -618
c86 -40 166 -139 176 -219 l3 -25 -328 0 -328 1 3 25 c9 65 71 156 130 194 99
62 239 72 344 24z"/>
<path d="M1548 7805 c-3 -3 -45 -8 -94 -11 -115 -7 -346 -57 -454 -99 -459
-176 -757 -518 -864 -990 -5 -18 -16 -99 -20 -140 -3 -22 -5 -42 -6 -45 -6
-17 6 -286 15 -332 3 -12 10 -50 16 -83 27 -149 111 -351 201 -482 216 -315
533 -512 953 -589 193 -36 557 -21 751 31 33 9 66 18 74 20 13 3 54 17 125 45
54 20 175 86 248 134 84 55 238 196 276 252 l21 32 -58 50 c-31 27 -71 63 -87
79 -17 15 -67 60 -110 98 -44 39 -102 91 -130 116 -27 26 -79 72 -115 103
l-65 56 -65 -69 c-117 -123 -260 -210 -370 -223 -14 -2 -29 -6 -35 -9 -13 -8
-231 -4 -270 5 -138 30 -275 123 -352 236 -139 206 -155 532 -36 770 139 277
497 388 818 253 83 -35 138 -75 229 -166 90 -90 84 -90 168 -12 30 28 135 122
233 210 98 88 194 175 213 193 l35 32 -24 27 c-51 57 -156 160 -199 194 -165
135 -451 256 -664 284 -27 3 -52 8 -56 10 -3 2 -68 6 -144 9 -76 4 -142 8
-146 11 -4 2 -9 2 -12 0z"/>
<path d="M4068 7196 c-1 -2 -53 -6 -114 -10 -62 -3 -118 -8 -125 -11 -8 -2
-25 -6 -39 -9 -299 -53 -584 -224 -743 -447 -79 -111 -149 -277 -171 -404 -11
-65 -22 -207 -16 -225 0 -3 3 -37 5 -77 10 -179 88 -383 205 -538 37 -50 181
-184 235 -220 116 -78 300 -159 405 -180 8 -2 26 -6 40 -9 154 -36 396 -40
590 -11 14 2 66 15 115 28 331 89 597 299 721 566 14 31 29 63 33 71 14 27 41
126 56 207 24 131 13 332 -29 495 -13 49 -53 147 -73 180 -13 21 -23 40 -23
42 0 16 -93 136 -146 189 -130 129 -224 190 -414 270 -19 8 -64 23 -100 32
-36 9 -81 21 -100 26 -53 14 -86 18 -190 25 -52 3 -100 7 -107 9 -6 2 -13 2
-15 1z m93 -687 c100 -32 152 -77 197 -170 39 -80 45 -110 45 -234 1 -122 -25
-210 -83 -284 -87 -110 -252 -147 -392 -88 -81 34 -166 150 -185 252 -14 76
-8 237 11 295 50 151 162 237 312 239 34 1 76 -4 95 -10z"/>
<path d="M8250 7188 c-123 -9 -141 -12 -225 -38 -135 -42 -250 -111 -351 -210
l-61 -60 -16 23 c-31 48 -133 140 -197 177 -81 48 -122 64 -230 90 -116 27
-339 23 -449 -9 -102 -30 -207 -83 -280 -142 -34 -27 -63 -49 -66 -49 -3 0 -5
26 -4 58 1 31 1 73 0 92 l-1 35 -405 0 c-223 0 -406 -2 -407 -5 0 -3 -2 -472
-3 -1043 l-1 -1037 430 2 431 3 1 560 c1 592 3 614 49 705 53 104 182 154 300
117 39 -12 82 -53 105 -97 42 -83 44 -102 46 -695 2 -313 3 -576 3 -582 1 -10
94 -13 431 -13 l430 0 0 548 c0 353 4 569 11 607 28 153 115 238 248 242 64 1
105 -12 152 -50 35 -27 68 -103 84 -197 4 -19 7 -286 7 -592 l0 -558 429 0
c402 0 429 1 430 18 0 9 1 280 1 602 1 521 -4 721 -17 792 -3 12 -7 39 -10 60
-16 106 -79 253 -150 353 -120 168 -310 270 -542 291 -37 3 -70 7 -73 8 -3 1
-48 -2 -100 -6z"/>
<path d="M10897 7194 c-1 -1 -42 -4 -92 -7 -177 -10 -331 -69 -428 -162 -16
-15 -31 -24 -34 -21 -3 3 -7 38 -7 78 l-1 73 -398 0 c-219 0 -403 -3 -409 -6
-11 -7 -15 -2789 -4 -2807 6 -10 805 -16 838 -6 9 3 17 13 17 22 -3 507 2 842
13 835 8 -4 39 -25 69 -46 51 -34 170 -84 223 -92 12 -2 39 -7 61 -11 114 -20
389 0 470 35 11 5 50 21 87 36 203 82 389 257 492 461 44 87 93 243 101 319 2
17 6 44 9 60 7 34 8 244 2 290 -5 36 -22 137 -31 185 -16 83 -80 227 -147 331
-50 79 -179 211 -259 266 -95 66 -256 129 -384 152 -53 9 -182 20 -188 15z
m-52 -703 c49 -23 71 -40 102 -82 69 -94 91 -169 91 -305 0 -162 -66 -299
-169 -352 -114 -57 -202 -61 -302 -14 -137 65 -199 180 -199 372 -1 94 2 115
21 178 59 195 268 288 456 203z"/>
<path d="M13017 7194 c-1 -1 -42 -5 -92 -8 -49 -4 -103 -9 -120 -11 -16 -3
-46 -7 -65 -10 -168 -24 -370 -85 -505 -152 -49 -25 -93 -48 -97 -52 -4 -3 21
-65 55 -136 35 -72 96 -198 136 -281 l73 -151 68 39 c174 101 428 145 615 108
75 -15 126 -41 174 -89 36 -36 78 -126 62 -135 -4 -3 -117 -6 -251 -7 -322 -3
-424 -13 -577 -59 -109 -33 -240 -97 -251 -122 -2 -5 -8 -8 -14 -8 -14 0 -86
-79 -121 -133 -47 -73 -70 -159 -73 -272 -3 -136 14 -225 63 -322 39 -80 130
-182 203 -230 133 -87 289 -128 485 -127 184 0 259 15 382 76 67 33 172 128
199 181 8 15 18 26 23 23 4 -3 7 -59 6 -126 l-1 -120 400 2 401 3 -1 590 c-1
624 -3 683 -34 829 -56 269 -238 491 -480 588 -164 65 -266 89 -450 104 -72 5
-210 11 -213 8z m313 -1381 c0 -111 -44 -184 -141 -233 -63 -33 -176 -34 -240
-2 -120 59 -122 222 -3 282 40 20 67 25 149 28 55 2 103 4 107 5 4 1 35 0 68
-1 l60 -4 0 -75z"/>
<path d="M17158 7179 c-522 -82 -876 -399 -962 -861 -9 -46 -15 -92 -15 -103
0 -11 0 -63 0 -115 0 -52 2 -107 4 -122 3 -16 7 -38 9 -50 11 -71 20 -104 29
-115 5 -7 7 -13 3 -13 -7 0 25 -83 57 -150 63 -132 181 -272 302 -359 39 -28
75 -55 81 -60 6 -5 53 -30 105 -54 139 -68 286 -111 454 -134 101 -14 409 -7
495 12 22 4 65 12 111 20 85 15 222 74 329 140 75 46 87 55 146 111 l44 42
-225 226 -224 226 -30 -18 c-17 -9 -31 -20 -31 -24 0 -5 -5 -8 -12 -8 -6 0
-19 -6 -27 -13 -23 -19 -129 -64 -171 -72 -19 -4 -84 -9 -143 -11 -164 -5
-263 25 -354 109 -45 41 -88 109 -76 121 4 3 327 6 720 6 392 0 714 3 714 8 7
41 9 75 9 187 1 72 -2 146 -5 165 -10 62 -14 84 -20 110 -3 14 -8 35 -11 48
-18 87 -81 225 -142 312 -120 170 -265 278 -507 380 -58 24 -270 68 -313 65
-12 -1 -22 1 -22 4 0 13 -221 6 -322 -10z m292 -584 c99 -22 193 -103 229
-199 10 -28 17 -54 14 -58 -5 -9 -647 -11 -655 -2 -7 6 25 95 43 121 37 52 70
83 110 104 80 41 173 54 259 34z"/>
<path d="M15858 7176 c-38 -6 -68 -10 -68 -8 0 3 -6 0 -12 -6 -7 -5 -29 -13
-48 -17 -66 -13 -214 -93 -277 -151 -72 -64 -63 -74 -66 81 l-2 80 -395 1
c-217 0 -401 -2 -407 -4 -10 -3 -13 -221 -13 -1043 l0 -1039 429 0 429 0 1
503 c0 276 3 513 5 527 3 14 9 39 12 55 32 148 149 255 309 281 54 9 199 9
256 0 40 -6 47 -5 50 11 3 10 4 180 4 378 l-1 360 -70 2 c-38 1 -99 -4 -136
-11z"/>
</g>
</svg>
